<mxfile host="app.diagrams.net" modified="2024-07-16T05:52:18.850Z" agent="Mozilla/5.0 (Macintosh; Intel Mac OS X 10_15_7) AppleWebKit/537.36 (KHTML, like Gecko) Chrome/126.0.0.0 Safari/537.36" etag="dq9bncaglZ491ksIymq3" version="24.6.5" type="google">
  <diagram name="Page-1" id="K-1oCuZmUlF3k26B64uP">
    <mxGraphModel grid="1" page="1" gridSize="10" guides="1" tooltips="1" connect="1" arrows="1" fold="1" pageScale="1" pageWidth="850" pageHeight="1100" math="0" shadow="0">
      <root>
        <mxCell id="0" />
        <mxCell id="1" parent="0" />
        <mxCell id="dgkhnKx2jO_JS8oISssn-5" value="&lt;font color=&quot;#879196&quot;&gt;Public Subnet B&lt;/font&gt;" style="rounded=1;whiteSpace=wrap;html=1;fillColor=none;verticalAlign=top;" vertex="1" parent="1">
          <mxGeometry x="753.25" y="-570" width="160" height="180" as="geometry" />
        </mxCell>
        <mxCell id="dgkhnKx2jO_JS8oISssn-2" value="&lt;font color=&quot;#879196&quot;&gt;Public Subnet A&lt;/font&gt;" style="rounded=1;whiteSpace=wrap;html=1;fillColor=none;verticalAlign=top;" vertex="1" parent="1">
          <mxGeometry x="753.25" y="-873" width="160" height="180" as="geometry" />
        </mxCell>
        <mxCell id="dgkhnKx2jO_JS8oISssn-4" value="Private Subnet A" style="rounded=1;whiteSpace=wrap;html=1;fillColor=none;align=center;verticalAlign=top;fontColor=#879196;" vertex="1" parent="1">
          <mxGeometry x="946" y="-873" width="294" height="180" as="geometry" />
        </mxCell>
        <mxCell id="_FWA-NXojtKZjzQ_S4pE-13" value="&lt;font color=&quot;#0a0a0a&quot;&gt;VPC&lt;/font&gt;" style="sketch=0;outlineConnect=0;gradientColor=none;html=1;whiteSpace=wrap;fontSize=12;fontStyle=0;shape=mxgraph.aws4.group;grIcon=mxgraph.aws4.group_vpc;strokeColor=#02a2f2;fillColor=none;verticalAlign=top;align=left;spacingLeft=30;fontColor=#879196;dashed=0;" vertex="1" parent="1">
          <mxGeometry x="600" y="-950" width="700" height="720" as="geometry" />
        </mxCell>
        <mxCell id="_FWA-NXojtKZjzQ_S4pE-12" value="AZ2" style="rounded=1;arcSize=10;dashed=1;strokeColor=#F59D56;fillColor=none;gradientColor=none;dashPattern=8 4;strokeWidth=1;fontSize=12;align=center;verticalAlign=top;" vertex="1" parent="1">
          <mxGeometry x="710" y="-620" width="550" height="290" as="geometry" />
        </mxCell>
        <mxCell id="dgkhnKx2jO_JS8oISssn-6" value="Private Subnet B" style="rounded=1;whiteSpace=wrap;html=1;fillColor=none;verticalAlign=top;fontColor=#879196;" vertex="1" parent="1">
          <mxGeometry x="948" y="-570" width="292" height="180" as="geometry" />
        </mxCell>
        <object label="User Devices" id="_FWA-NXojtKZjzQ_S4pE-1">
          <mxCell style="sketch=0;points=[[0,0,0],[0.25,0,0],[0.5,0,0],[0.75,0,0],[1,0,0],[0,1,0],[0.25,1,0],[0.5,1,0],[0.75,1,0],[1,1,0],[0,0.25,0],[0,0.5,0],[0,0.75,0],[1,0.25,0],[1,0.5,0],[1,0.75,0]];outlineConnect=0;fontColor=#232F3E;fillColor=#01A88D;strokeColor=#ffffff;dashed=0;verticalLabelPosition=bottom;verticalAlign=top;align=center;html=1;fontSize=12;fontStyle=0;aspect=fixed;shape=mxgraph.aws4.resourceIcon;resIcon=mxgraph.aws4.desktop_and_app_streaming;" vertex="1" parent="1">
            <mxGeometry x="310" y="-654.37" width="50.75" height="50.75" as="geometry" />
          </mxCell>
        </object>
        <mxCell id="_FWA-NXojtKZjzQ_S4pE-8" value="Elastic Load Balancer" style="outlineConnect=0;dashed=0;verticalLabelPosition=bottom;verticalAlign=top;align=center;html=1;shape=mxgraph.aws3.elastic_load_balancing;fillColor=#F58534;gradientColor=none;" vertex="1" parent="1">
          <mxGeometry x="629" y="-658.5" width="50" height="57.5" as="geometry" />
        </mxCell>
        <mxCell id="_FWA-NXojtKZjzQ_S4pE-9" value="&lt;font style=&quot;font-size: 12px;&quot;&gt;AZ1&lt;/font&gt;" style="rounded=1;arcSize=10;dashed=1;strokeColor=#F59D56;fillColor=none;gradientColor=none;dashPattern=8 4;strokeWidth=1;html=1;align=center;horizontal=1;verticalAlign=top;fontSize=11;" vertex="1" parent="1">
          <mxGeometry x="710" y="-930" width="550" height="290" as="geometry" />
        </mxCell>
        <mxCell id="_FWA-NXojtKZjzQ_S4pE-16" value="" style="edgeStyle=orthogonalEdgeStyle;rounded=0;orthogonalLoop=1;jettySize=auto;html=1;strokeWidth=10;fontColor=#879196;strokeColor=#879196;labelBackgroundColor=#879196;endArrow=classic;endFill=1;" edge="1" parent="1" source="_FWA-NXojtKZjzQ_S4pE-14" target="_FWA-NXojtKZjzQ_S4pE-15">
          <mxGeometry relative="1" as="geometry" />
        </mxCell>
        <mxCell id="9zjYcONGs0eIykCOqAr7-1" value="Replciation" style="edgeLabel;html=1;align=center;verticalAlign=middle;resizable=0;points=[];" connectable="0" vertex="1" parent="_FWA-NXojtKZjzQ_S4pE-16">
          <mxGeometry x="-0.1021" y="2" relative="1" as="geometry">
            <mxPoint as="offset" />
          </mxGeometry>
        </mxCell>
        <mxCell id="_FWA-NXojtKZjzQ_S4pE-15" value="Secondary" style="sketch=0;outlineConnect=0;fontColor=#232F3E;gradientColor=none;fillColor=#C925D1;strokeColor=none;dashed=0;verticalLabelPosition=bottom;verticalAlign=top;align=center;html=1;fontSize=12;fontStyle=0;aspect=fixed;pointerEvents=1;shape=mxgraph.aws4.rds_instance;" vertex="1" parent="1">
          <mxGeometry x="1140" y="-519" width="78" height="78" as="geometry" />
        </mxCell>
        <mxCell id="_FWA-NXojtKZjzQ_S4pE-23" value="" style="edgeStyle=orthogonalEdgeStyle;rounded=0;orthogonalLoop=1;jettySize=auto;html=1;" edge="1" parent="1" source="_FWA-NXojtKZjzQ_S4pE-19" target="_FWA-NXojtKZjzQ_S4pE-21">
          <mxGeometry relative="1" as="geometry" />
        </mxCell>
        <mxCell id="_FWA-NXojtKZjzQ_S4pE-19" value="Web Server(s) - EC2" style="outlineConnect=0;dashed=0;verticalLabelPosition=bottom;verticalAlign=top;align=center;html=1;shape=mxgraph.aws3.ec2;fillColor=#F58534;gradientColor=none;" vertex="1" parent="1">
          <mxGeometry x="795" y="-829.5" width="76.5" height="93" as="geometry" />
        </mxCell>
        <mxCell id="_FWA-NXojtKZjzQ_S4pE-24" value="" style="edgeStyle=orthogonalEdgeStyle;rounded=0;orthogonalLoop=1;jettySize=auto;html=1;" edge="1" parent="1" source="_FWA-NXojtKZjzQ_S4pE-20" target="_FWA-NXojtKZjzQ_S4pE-22">
          <mxGeometry relative="1" as="geometry" />
        </mxCell>
        <mxCell id="_FWA-NXojtKZjzQ_S4pE-26" value="" style="edgeStyle=orthogonalEdgeStyle;rounded=0;orthogonalLoop=1;jettySize=auto;html=1;" edge="1" parent="1" source="_FWA-NXojtKZjzQ_S4pE-21" target="_FWA-NXojtKZjzQ_S4pE-14">
          <mxGeometry relative="1" as="geometry">
            <mxPoint x="1130" y="-780" as="targetPoint" />
          </mxGeometry>
        </mxCell>
        <mxCell id="_FWA-NXojtKZjzQ_S4pE-21" value="App Server(s) - EC2" style="outlineConnect=0;dashed=0;verticalLabelPosition=bottom;verticalAlign=top;align=center;html=1;shape=mxgraph.aws3.ec2;fillColor=#F58534;gradientColor=none;" vertex="1" parent="1">
          <mxGeometry x="980" y="-829.5" width="76.5" height="93" as="geometry" />
        </mxCell>
        <mxCell id="_FWA-NXojtKZjzQ_S4pE-22" value="App Server(s) - EC2" style="outlineConnect=0;dashed=0;verticalLabelPosition=bottom;verticalAlign=top;align=center;html=1;shape=mxgraph.aws3.ec2;fillColor=#F58534;gradientColor=none;" vertex="1" parent="1">
          <mxGeometry x="980" y="-526.5" width="80" height="93" as="geometry" />
        </mxCell>
        <mxCell id="5n1vcWrxhwN9F3ZvSvme-10" style="edgeStyle=orthogonalEdgeStyle;rounded=0;orthogonalLoop=1;jettySize=auto;html=1;entryX=0;entryY=0.5;entryDx=0;entryDy=0;entryPerimeter=0;" edge="1" parent="1" source="_FWA-NXojtKZjzQ_S4pE-8" target="_FWA-NXojtKZjzQ_S4pE-19">
          <mxGeometry relative="1" as="geometry" />
        </mxCell>
        <mxCell id="5n1vcWrxhwN9F3ZvSvme-14" style="edgeStyle=orthogonalEdgeStyle;rounded=0;orthogonalLoop=1;jettySize=auto;html=1;entryX=0;entryY=0.5;entryDx=0;entryDy=0;entryPerimeter=0;" edge="1" parent="1" source="_FWA-NXojtKZjzQ_S4pE-8" target="_FWA-NXojtKZjzQ_S4pE-20">
          <mxGeometry relative="1" as="geometry">
            <mxPoint x="690" y="-621" as="sourcePoint" />
            <mxPoint x="792" y="-770" as="targetPoint" />
          </mxGeometry>
        </mxCell>
        <mxCell id="_FWA-NXojtKZjzQ_S4pE-20" value="Web Server(s) - EC2" style="outlineConnect=0;dashed=0;verticalLabelPosition=bottom;verticalAlign=top;align=center;html=1;shape=mxgraph.aws3.ec2;fillColor=#F58534;gradientColor=none;" vertex="1" parent="1">
          <mxGeometry x="795" y="-526.5" width="76.5" height="93" as="geometry" />
        </mxCell>
        <mxCell id="dgkhnKx2jO_JS8oISssn-9" value="" style="sketch=0;outlineConnect=0;gradientColor=none;fontColor=#545B64;strokeColor=none;fillColor=#879196;dashed=0;verticalLabelPosition=bottom;verticalAlign=top;align=center;html=1;fontSize=12;fontStyle=0;aspect=fixed;shape=mxgraph.aws4.illustration_users;pointerEvents=1" vertex="1" parent="1">
          <mxGeometry x="270" y="-653.5" width="33" height="33" as="geometry" />
        </mxCell>
        <mxCell id="aBmeKGcJVDTIixA3i9WY-1" value="Auto Scaling" style="sketch=0;points=[[0,0,0],[0.25,0,0],[0.5,0,0],[0.75,0,0],[1,0,0],[0,1,0],[0.25,1,0],[0.5,1,0],[0.75,1,0],[1,1,0],[0,0.25,0],[0,0.5,0],[0,0.75,0],[1,0.25,0],[1,0.5,0],[1,0.75,0]];outlineConnect=0;fontColor=#232F3E;fillColor=#ED7100;strokeColor=#ffffff;dashed=0;verticalLabelPosition=bottom;verticalAlign=top;align=center;html=1;fontSize=12;fontStyle=0;aspect=fixed;shape=mxgraph.aws4.resourceIcon;resIcon=mxgraph.aws4.auto_scaling2;" vertex="1" parent="1">
          <mxGeometry x="818.25" y="-405" width="30" height="30" as="geometry" />
        </mxCell>
        <mxCell id="9zjYcONGs0eIykCOqAr7-2" value="Auto Scaling" style="sketch=0;points=[[0,0,0],[0.25,0,0],[0.5,0,0],[0.75,0,0],[1,0,0],[0,1,0],[0.25,1,0],[0.5,1,0],[0.75,1,0],[1,1,0],[0,0.25,0],[0,0.5,0],[0,0.75,0],[1,0.25,0],[1,0.5,0],[1,0.75,0]];outlineConnect=0;fontColor=#232F3E;fillColor=#ED7100;strokeColor=#ffffff;dashed=0;verticalLabelPosition=bottom;verticalAlign=top;align=center;html=1;fontSize=12;fontStyle=0;aspect=fixed;shape=mxgraph.aws4.resourceIcon;resIcon=mxgraph.aws4.auto_scaling2;" vertex="1" parent="1">
          <mxGeometry x="818.25" y="-707.5" width="30" height="30" as="geometry" />
        </mxCell>
        <mxCell id="9zjYcONGs0eIykCOqAr7-4" value="Auto Scaling" style="sketch=0;points=[[0,0,0],[0.25,0,0],[0.5,0,0],[0.75,0,0],[1,0,0],[0,1,0],[0.25,1,0],[0.5,1,0],[0.75,1,0],[1,1,0],[0,0.25,0],[0,0.5,0],[0,0.75,0],[1,0.25,0],[1,0.5,0],[1,0.75,0]];outlineConnect=0;fontColor=#232F3E;fillColor=#ED7100;strokeColor=#ffffff;dashed=0;verticalLabelPosition=bottom;verticalAlign=top;align=center;html=1;fontSize=12;fontStyle=0;aspect=fixed;shape=mxgraph.aws4.resourceIcon;resIcon=mxgraph.aws4.auto_scaling2;" vertex="1" parent="1">
          <mxGeometry x="1078" y="-405" width="30" height="30" as="geometry" />
        </mxCell>
        <mxCell id="9zjYcONGs0eIykCOqAr7-5" value="" style="endArrow=classic;html=1;rounded=0;exitX=1;exitY=0.5;exitDx=0;exitDy=0;exitPerimeter=0;entryX=-0.063;entryY=0.496;entryDx=0;entryDy=0;entryPerimeter=0;" edge="1" parent="1" source="1a0vY8_fKgD-tp8gp9ev-1" target="5n1vcWrxhwN9F3ZvSvme-5">
          <mxGeometry width="50" height="50" relative="1" as="geometry">
            <mxPoint x="390" y="-632.25" as="sourcePoint" />
            <mxPoint x="440" y="-682.25" as="targetPoint" />
          </mxGeometry>
        </mxCell>
        <mxCell id="5n1vcWrxhwN9F3ZvSvme-5" value="API Gateway" style="outlineConnect=0;dashed=0;verticalLabelPosition=bottom;verticalAlign=top;align=center;html=1;shape=mxgraph.aws3.api_gateway;fillColor=#D9A741;gradientColor=none;" vertex="1" parent="1">
          <mxGeometry x="500" y="-657.75" width="47.5" height="57.5" as="geometry" />
        </mxCell>
        <mxCell id="1a0vY8_fKgD-tp8gp9ev-2" value="" style="endArrow=classic;html=1;rounded=0;exitX=1;exitY=0.5;exitDx=0;exitDy=0;exitPerimeter=0;entryX=-0.063;entryY=0.496;entryDx=0;entryDy=0;entryPerimeter=0;" edge="1" parent="1" source="_FWA-NXojtKZjzQ_S4pE-1" target="1a0vY8_fKgD-tp8gp9ev-1">
          <mxGeometry width="50" height="50" relative="1" as="geometry">
            <mxPoint x="378" y="-632" as="sourcePoint" />
            <mxPoint x="477" y="-632" as="targetPoint" />
          </mxGeometry>
        </mxCell>
        <mxCell id="1a0vY8_fKgD-tp8gp9ev-1" value="Route 53" style="sketch=0;points=[[0,0,0],[0.25,0,0],[0.5,0,0],[0.75,0,0],[1,0,0],[0,1,0],[0.25,1,0],[0.5,1,0],[0.75,1,0],[1,1,0],[0,0.25,0],[0,0.5,0],[0,0.75,0],[1,0.25,0],[1,0.5,0],[1,0.75,0]];outlineConnect=0;fontColor=#232F3E;fillColor=#8C4FFF;strokeColor=#ffffff;dashed=0;verticalLabelPosition=bottom;verticalAlign=top;align=center;html=1;fontSize=12;fontStyle=0;aspect=fixed;shape=mxgraph.aws4.resourceIcon;resIcon=mxgraph.aws4.route_53;" vertex="1" parent="1">
          <mxGeometry x="413" y="-645.5" width="33" height="33" as="geometry" />
        </mxCell>
        <mxCell id="1a0vY8_fKgD-tp8gp9ev-4" style="edgeStyle=orthogonalEdgeStyle;rounded=0;orthogonalLoop=1;jettySize=auto;html=1;entryX=0;entryY=0.5;entryDx=0;entryDy=0;entryPerimeter=0;" edge="1" parent="1" source="5n1vcWrxhwN9F3ZvSvme-5" target="_FWA-NXojtKZjzQ_S4pE-8">
          <mxGeometry relative="1" as="geometry">
            <mxPoint x="560" y="-630" as="sourcePoint" />
          </mxGeometry>
        </mxCell>
        <mxCell id="1a0vY8_fKgD-tp8gp9ev-8" style="edgeStyle=orthogonalEdgeStyle;rounded=0;orthogonalLoop=1;jettySize=auto;html=1;endArrow=none;endFill=0;exitX=1;exitY=0.5;exitDx=0;exitDy=0;exitPerimeter=0;" edge="1" parent="1" source="_FWA-NXojtKZjzQ_S4pE-22">
          <mxGeometry relative="1" as="geometry">
            <mxPoint x="1065" y="-480" as="sourcePoint" />
            <mxPoint x="1119" y="-783" as="targetPoint" />
            <Array as="points">
              <mxPoint x="1119" y="-480" />
              <mxPoint x="1119" y="-783" />
            </Array>
          </mxGeometry>
        </mxCell>
        <mxCell id="_FWA-NXojtKZjzQ_S4pE-14" value="Primary" style="sketch=0;outlineConnect=0;fontColor=#232F3E;gradientColor=none;fillColor=#C925D1;strokeColor=none;dashed=0;verticalLabelPosition=bottom;verticalAlign=top;align=center;html=1;fontSize=12;fontStyle=0;aspect=fixed;pointerEvents=1;shape=mxgraph.aws4.rds_instance;" vertex="1" parent="1">
          <mxGeometry x="1140" y="-822" width="78" height="78" as="geometry" />
        </mxCell>
        <mxCell id="9zjYcONGs0eIykCOqAr7-3" value="Auto Scaling" style="sketch=0;points=[[0,0,0],[0.25,0,0],[0.5,0,0],[0.75,0,0],[1,0,0],[0,1,0],[0.25,1,0],[0.5,1,0],[0.75,1,0],[1,1,0],[0,0.25,0],[0,0.5,0],[0,0.75,0],[1,0.25,0],[1,0.5,0],[1,0.75,0]];outlineConnect=0;fontColor=#232F3E;fillColor=#ED7100;strokeColor=#ffffff;dashed=0;verticalLabelPosition=bottom;verticalAlign=top;align=center;html=1;fontSize=12;fontStyle=0;aspect=fixed;shape=mxgraph.aws4.resourceIcon;resIcon=mxgraph.aws4.auto_scaling2;" vertex="1" parent="1">
          <mxGeometry x="1078" y="-707.5" width="30" height="30" as="geometry" />
        </mxCell>
        <mxCell id="1a0vY8_fKgD-tp8gp9ev-15" value="Centralized Monitoring - CloudWatch" style="outlineConnect=0;dashed=0;verticalLabelPosition=bottom;verticalAlign=top;align=center;html=1;shape=mxgraph.aws3.cloudwatch;fillColor=#759C3E;gradientColor=none;" vertex="1" parent="1">
          <mxGeometry x="699.25" y="-310" width="54" height="43" as="geometry" />
        </mxCell>
        <mxCell id="1a0vY8_fKgD-tp8gp9ev-16" value="Centralized Logging - CloudTrail" style="fillColor=#28A8E0;verticalLabelPosition=bottom;sketch=0;html=1;strokeColor=#ffffff;verticalAlign=top;align=center;points=[[0.145,0.145,0],[0.5,0,0],[0.855,0.145,0],[1,0.5,0],[0.855,0.855,0],[0.5,1,0],[0.145,0.855,0],[0,0.5,0]];pointerEvents=1;shape=mxgraph.cisco_safe.compositeIcon;bgIcon=ellipse;resIcon=mxgraph.cisco_safe.capability.logging_reporting;" vertex="1" parent="1">
          <mxGeometry x="937" y="-308.5" width="43" height="40" as="geometry" />
        </mxCell>
        <mxCell id="1a0vY8_fKgD-tp8gp9ev-17" value="System Backup &amp;amp; Recovery - Backup" style="sketch=0;points=[[0,0,0],[0.25,0,0],[0.5,0,0],[0.75,0,0],[1,0,0],[0,1,0],[0.25,1,0],[0.5,1,0],[0.75,1,0],[1,1,0],[0,0.25,0],[0,0.5,0],[0,0.75,0],[1,0.25,0],[1,0.5,0],[1,0.75,0]];outlineConnect=0;fontColor=#232F3E;fillColor=#7AA116;strokeColor=#ffffff;dashed=0;verticalLabelPosition=bottom;verticalAlign=top;align=center;html=1;fontSize=12;fontStyle=0;aspect=fixed;shape=mxgraph.aws4.resourceIcon;resIcon=mxgraph.aws4.backup;" vertex="1" parent="1">
          <mxGeometry x="1170" y="-308.5" width="40" height="40" as="geometry" />
        </mxCell>
      </root>
    </mxGraphModel>
  </diagram>
</mxfile>
